<svg xmlns="http://www.w3.org/2000/svg" width="2560" height="1440" viewBox="0 0 1280 720"><defs><linearGradient id="sport-sky" x2="0" y2="1"><stop stop-color="#92c9e3"/><stop offset="1" stop-color="#c6e2ec"/></linearGradient><pattern id="sport-windows" width="27" height="90" patternUnits="userSpaceOnUse"><rect width="27" height="90" fill="#a5becd"/><rect x="7" width="12" height="80" fill="#536f8b"/></pattern><filter id="sport-blur"><feGaussianBlur stdDeviation="3"/></filter></defs><g filter="url(#sport-blur)"><rect width="1280" height="720" fill="url(#sport-sky)"/><path d="M0 347l133-129 267-32 210 42 227 74v259H0z" fill="#b3c7d0"/><path d="M100 241h328v310H100zM455 267h347v275H455z" fill="url(#sport-windows)"/><path d="M0 572h1280v148H0z" fill="#79a260"/><path d="M791 588l153-203 336-45v51l-302 41-93 156z" fill="#ba9d83"/><path d="M1004 610q75-175 276-135v50q-139-21-201 87" fill="#d1d9d8"/><g fill="#4d6551"><circle cx="187" cy="213" r="24"/><circle cx="334" cy="195" r="21"/><circle cx="1184" cy="342" r="20"/></g><g transform="translate(644 145)"><ellipse cx="0" cy="427" rx="75" ry="15" fill="#426848" opacity=".5"/><path d="M-28 226l-24 105-6 90 32 1 16-90 22-79M12 249l15 79 12 96 34 2-13-105-17-102" fill="#253d5c"/><path d="M-28 239l-31 63 36 16 32-69 21 70 36-7-27-79" fill="#c8443d"/><path d="M-23 89l-43 44-9 104 22 8 29-80M33 88l29 49 12 105-19 4-30-86" fill="#986c53"/><path d="M-33 84l32-17 34 15 15 105-7 54-62 2-21-63z" fill="#d75246"/><path d="M-34 85l-22 20-17 55 28 9 24-62M31 84l24 20 9 51-22 13-22-62" fill="#274265"/><rect x="-11" y="53" width="27" height="35" fill="#a67b5a"/><ellipse cy="39" rx="25" ry="33" fill="#a97a5c"/><path d="M-26 35q-8-44 31-37 33 3 20 42l-8-17-30-4z" fill="#263442"/><path d="M-56 417l-10 15 40 6 2-16M40 419l-1 19 45 2-14-18" fill="#e4ddd0"/></g></g></svg>