<svg class="forest" viewBox="0 0 1280 720" aria-hidden="true"><defs><linearGradient id="casual-water" x2="0" y2="1"><stop stop-color="#76cbd0"></stop><stop offset="1" stop-color="#258c90"></stop></linearGradient></defs><rect width="1280" height="720" fill="#9ed9d3"></rect><path d="M0 240Q180 70 375 180T760 160 1280 240V440H0Z" fill="#81ac94"></path><path d="M0 430Q380 330 680 470T1280 400V720H0Z" fill="url(#casual-water)"></path><path d="M840 720q160-300 440-270v270Z" fill="#e6d499"></path><path d="M0 620q220-75 380 100H0Z" fill="#71a954"></path><path d="M60-30q-15 170 13 300t-40 450H-20V0Z" fill="#6a402c"></path><path d="M65 222Q300 35 420-30M120 145Q55 45-20 18" stroke="#6a402c" stroke-width="55" fill="none"></path><path d="M1180-20q30 130 21 250t79 210V0Z" fill="#795039"></path><g fill="#377a47"><ellipse cx="-70" cy="15" rx="100" ry="74"></ellipse><ellipse cx="8" cy="32" rx="100" ry="74"></ellipse><ellipse cx="86" cy="49" rx="100" ry="74"></ellipse><ellipse cx="164" cy="66" rx="100" ry="74"></ellipse><ellipse cx="242" cy="15" rx="100" ry="74"></ellipse><ellipse cx="320" cy="32" rx="100" ry="74"></ellipse><ellipse cx="398" cy="49" rx="100" ry="74"></ellipse><ellipse cx="476" cy="66" rx="100" ry="74"></ellipse><ellipse cx="554" cy="15" rx="100" ry="74"></ellipse><ellipse cx="632" cy="32" rx="100" ry="74"></ellipse><ellipse cx="710" cy="49" rx="100" ry="74"></ellipse><ellipse cx="788" cy="66" rx="100" ry="74"></ellipse><ellipse cx="866" cy="15" rx="100" ry="74"></ellipse><ellipse cx="944" cy="32" rx="100" ry="74"></ellipse><ellipse cx="1022" cy="49" rx="100" ry="74"></ellipse><ellipse cx="1100" cy="66" rx="100" ry="74"></ellipse><ellipse cx="1178" cy="15" rx="100" ry="74"></ellipse><ellipse cx="1256" cy="32" rx="100" ry="74"></ellipse><ellipse cx="1334" cy="49" rx="100" ry="74"></ellipse><ellipse cx="10" cy="630" rx="145" ry="48"></ellipse><ellipse cx="1260" cy="432" rx="122" ry="68"></ellipse><ellipse cx="1090" cy="337" rx="150" ry="86"></ellipse></g><g fill="#458b4b"><ellipse cx="38" cy="565" rx="93" ry="38"></ellipse><ellipse cx="1210" cy="367" rx="110" ry="58"></ellipse><ellipse cx="1100" cy="292" rx="87" ry="53"></ellipse></g><g fill="#d8c49b" stroke="#b8a57b" stroke-width="6"><path d="M1075 397h66v-97h-66zM1080 293h58v-49h-58z"></path><path d="M1190 460h71v-118h-71zM1196 335h60v-52h-60z"></path></g><g fill="#748256"><circle cx="1096" cy="268" r="7"></circle><circle cx="1122" cy="268" r="7"></circle><circle cx="1210" cy="307" r="7"></circle><circle cx="1237" cy="307" r="7"></circle></g><g stroke="#bce9d5" stroke-width="4" opacity=".45"><path d="M73 494h98m760 85h65M235 641h93m-82-95h50m456 112h78"></path></g><g fill="#609342"><ellipse cx="52" cy="695" rx="83" ry="18" transform="rotate(-23 52 695)"></ellipse><ellipse cx="1200" cy="690" rx="115" ry="30" transform="rotate(-24 1200 690)"></ellipse></g></svg>